<?xml version="1.0" encoding="iso-8859-1"?>
<!-- Uploaded to: SVG Repo, www.svgrepo.com, Generator: SVG Repo Mixer Tools -->
<svg height="800px" width="800px" version="1.1" id="Layer_1" xmlns="http://www.w3.org/2000/svg" xmlns:xlink="http://www.w3.org/1999/xlink" 
	 viewBox="0 0 512 512" xml:space="preserve">
<path style="fill:#F7DC4D;" d="M226.768,67.306H45.354c-13.916,0-25.198,11.281-25.198,25.198v57.111
	c0,13.917,11.282,25.198,25.198,25.198h181.413c13.916,0,25.198-11.281,25.198-25.198V92.504
	C251.965,78.588,240.683,67.306,226.768,67.306z"/>
<path style="fill:#3E3E42;" d="M136.061,444.694c-13.916,0-25.198-11.281-25.198-25.198V154.095
	c0-13.917,11.282-25.198,25.198-25.198s25.198,11.281,25.198,25.198v265.4C161.258,433.412,149.977,444.694,136.061,444.694z"/>
<path style="fill:#1D1D1F;" d="M495.202,224.174H301.659c-9.277,0-16.798-7.521-16.798-16.798c0-62.623,50.947-113.57,113.57-113.57
	c62.622,0,113.569,50.947,113.569,113.57C512,216.653,504.479,224.174,495.202,224.174z M320.232,190.577h156.396
	c-7.737-36.06-39.86-63.175-78.197-63.175S327.97,154.516,320.232,190.577z"/>
<path style="fill:#EDA637;" d="M226.768,67.306h-90.616v107.506h90.616c13.916,0,25.198-11.281,25.198-25.198V92.504
	C251.965,78.588,240.683,67.306,226.768,67.306z"/>
<path style="fill:#1D1D1F;" d="M136.061,128.897v315.795c13.916,0,25.198-11.281,25.198-25.198v-265.4
	C161.258,140.179,149.977,128.897,136.061,128.897z"/>
<path style="fill:#5F98D1;" d="M507.663,196.284c-3.188-3.606-7.77-5.67-12.583-5.67H301.782c-4.813,0-9.396,2.065-12.583,5.67
	c-3.189,3.606-4.678,8.406-4.089,13.182l26.83,217.683c1.038,8.419,8.19,14.743,16.673,14.743h139.635
	c8.482,0,15.635-6.324,16.673-14.743l26.831-217.683C512.341,204.69,510.852,199.89,507.663,196.284z"/>
<g>
	<path style="fill:#3B6EAF;" d="M507.663,196.284c-3.188-3.606-7.77-5.67-12.583-5.67h-97.632v251.28h70.801
		c8.482,0,15.635-6.324,16.673-14.743l26.831-217.683C512.341,204.69,510.852,199.89,507.663,196.284z"/>
	<polygon style="fill:#3B6EAF;" points="303.823,361.295 493.038,361.295 496.308,334.761 300.553,334.761 	"/>
	<polygon style="fill:#3B6EAF;" points="488.013,402.055 491.284,375.52 305.576,375.52 308.846,402.055 	"/>
</g>
<g>
	<polygon style="fill:#263364;" points="397.448,334.761 397.448,361.295 493.038,361.295 496.308,334.761 	"/>
	<polygon style="fill:#263364;" points="397.448,375.52 397.448,402.055 488.013,402.055 491.284,375.52 	"/>
</g>
<g>
	<path style="fill:#67D1D3;" d="M442.192,206.272h-89.488c-8.687,0-15.73-7.043-15.73-15.73l0,0c0-8.687,7.043-15.73,15.73-15.73
		h89.488c8.687,0,15.73,7.043,15.73,15.73l0,0C457.922,199.231,450.879,206.272,442.192,206.272z"/>
	<path style="fill:#67D1D3;" d="M426.563,261.414L426.563,261.414c-8.032,0-14.543-6.511-14.543-14.543v-56.327h29.087v56.327
		C441.107,254.901,434.596,261.414,426.563,261.414z"/>
	<path style="fill:#67D1D3;" d="M388.704,229.86L388.704,229.86c-8.032,0-14.543-6.511-14.543-14.543v-30.322h29.087v30.321
		C403.248,223.349,396.735,229.86,388.704,229.86z"/>
</g>
<path style="fill:#7E4F1F;" d="M25.198,128.897h221.727c13.916,0,25.198,11.281,25.198,25.197c0,13.917-11.282,25.198-25.198,25.198
	H25.198C11.282,179.292,0,168.011,0,154.095C0,140.178,11.281,128.897,25.198,128.897z"/>
<path style="fill:#C27526;" d="M25.198,179.292H135.97v-50.395H25.198C11.282,128.897,0,140.178,0,154.095
	S11.281,179.292,25.198,179.292z"/>
<path style="fill:#C6C5CA;" d="M158.158,409.061h-45.585c-4.131,0-7.481-3.35-7.481-7.481v-63.67c0-4.131,3.35-7.481,7.481-7.481
	h45.585c4.131,0,7.481,3.35,7.481,7.481v63.67C165.638,405.711,162.289,409.061,158.158,409.061z"/>
<path style="fill:#8A8A91;" d="M158.158,330.428h-22.097v78.633h22.097c4.131,0,7.481-3.35,7.481-7.482v-63.67
	C165.638,333.777,162.29,330.428,158.158,330.428z"/>
</svg>