<!DOCTYPE svg PUBLIC "-//W3C//DTD SVG 1.1//EN" "http://www.w3.org/Graphics/SVG/1.1/DTD/svg11.dtd">

<!-- Uploaded to: SVG Repo, www.svgrepo.com, Transformed by: SVG Repo Mixer Tools -->
<svg fill="#2b3990" width="800px" height="800px" viewBox="-1.7 0 20.4 20.4" xmlns="http://www.w3.org/2000/svg" class="cf-icon-svg">

<g id="SVGRepo_bgCarrier" stroke-width="0"/>

<g id="SVGRepo_tracerCarrier" stroke-linecap="round" stroke-linejoin="round"/>

<g id="SVGRepo_iconCarrier">

<path d="M16.416 10.283A7.917 7.917 0 1 1 8.5 2.366a7.916 7.916 0 0 1 7.916 7.917zm-2.958.01a.792.792 0 0 0-.792-.792H9.284V6.12a.792.792 0 1 0-1.583 0V9.5H4.32a.792.792 0 0 0 0 1.584H7.7v3.382a.792.792 0 0 0 1.583 0v-3.382h3.382a.792.792 0 0 0 .792-.791z"/>

</g>

</svg>